<svg width="24" height="24" viewBox="0 0 24 24" fill="none" xmlns="http://www.w3.org/2000/svg">
<path fill-rule="evenodd" clip-rule="evenodd" d="M20 14C20 14.552 19.552 15 19 15C18.448 15 18 14.552 18 14C18 13.448 18.448 13 19 13C19.552 13 20 13.448 20 14ZM17 14C17 14.552 16.552 15 16 15C15.448 15 15 14.552 15 14C15 13.448 15.448 13 16 13C16.552 13 17 13.448 17 14ZM14 14C14 14.552 13.552 15 13 15C12.448 15 12 14.552 12 14C12 13.448 12.448 13 13 13C13.552 13 14 13.448 14 14ZM19.415 18.946C18.415 19.202 17.426 19.428 16.091 19.428C12.626 19.428 9 17.363 9 14.005C9 10.877 12.14 8.333 16 8.333C19.844 8.333 23 10.875 23 14.005C23 15.596 22.354 16.532 21.519 17.532L22.358 20.218L19.415 18.946ZM6.042 15.571L1.653 17.467L2.909 13.455C1.788 12.114 1 10.79 1 8.756C1 4.479 5.262 1 10.5 1C15.518 1 19.628 4.194 19.967 8.222C18.777 7.656 17.416 7.333 16 7.333C11.801 7.333 8 10.13 8 14.005C8 14.717 8.147 15.405 8.411 16.054C7.458 15.928 6.865 15.782 6.042 15.571ZM24 14.005C24 11.833 22.801 9.99 20.998 8.795L21 8.756C21 3.67 16.012 0 10.5 0C4.954 0 0 3.698 0 8.756C0 10.55 0.646 12.312 1.791 13.678L0.047 19.25L6.125 16.625C7.107 16.878 8.057 17.032 8.975 17.114C10.292 19.067 12.851 20.428 16.091 20.428C17.11 20.428 18.196 20.293 19.333 20L23.964 22L22.636 17.755C23.507 16.713 24 15.371 24 14.005Z" fill="black"/>
</svg>
