<svg width="55" height="55" viewBox="0 0 55 55" fill="none" xmlns="http://www.w3.org/2000/svg">
<path d="M27.5 0C12.3131 0 0 12.3131 0 27.5C0 42.6869 12.3131 55 27.5 55C42.6869 55 55 42.6869 55 27.5C55 12.3131 42.6869 0 27.5 0ZM20.8152 36.8569C15.6406 36.8569 11.4583 32.6746 11.4583 27.5C11.4583 22.3254 15.6406 18.1431 20.8152 18.1431C23.3429 18.1431 25.4535 19.0644 27.0829 20.5883L24.546 23.0358C23.8494 22.3667 22.6348 21.5921 20.8152 21.5921C17.6206 21.5921 15.015 24.239 15.015 27.5023C15.015 30.7656 17.6229 33.4125 20.8152 33.4125C24.5185 33.4125 25.9119 30.7496 26.1227 29.3746H20.8152V26.1663H29.6496C29.7321 26.6338 29.7963 27.1013 29.7963 27.7177C29.7985 33.0619 26.2144 36.8569 20.8152 36.8569ZM43.5417 28.836H39.5312V32.8465H36.8569V28.836H32.8465V26.164H36.8569V22.1535H39.5312V26.164H43.5417V28.836Z" fill="#E64141"/>
</svg>
