<svg width="32" height="32" viewBox="0 0 32 32" fill="none" xmlns="http://www.w3.org/2000/svg">
<path d="M24 28H8C7.73478 28 7.48043 27.8946 7.29289 27.7071C7.10536 27.5196 7 27.2652 7 27V4C7 3.73478 7.10536 3.48043 7.29289 3.29289C7.48043 3.10536 7.73478 3 8 3H24C24.2652 3 24.5196 3.10536 24.7071 3.29289C24.8946 3.48043 25 3.73478 25 4V10.17C25 10.4352 24.8946 10.6896 24.7071 10.8771C24.5196 11.0646 24.2652 11.17 24 11.17C23.7348 11.17 23.4804 11.0646 23.2929 10.8771C23.1054 10.6896 23 10.4352 23 10.17V5H9V26H23V15.83C23 15.5648 23.1054 15.3104 23.2929 15.1229C23.4804 14.9354 23.7348 14.83 24 14.83C24.2652 14.83 24.5196 14.9354 24.7071 15.1229C24.8946 15.3104 25 15.5648 25 15.83V27C25 27.2652 24.8946 27.5196 24.7071 27.7071C24.5196 27.8946 24.2652 28 24 28Z" fill="#2E3192"/>
<path d="M16.343 21.657C16.1946 21.6571 16.048 21.6243 15.9139 21.5608C15.7798 21.4973 15.6615 21.4048 15.5676 21.2899C15.4737 21.175 15.4065 21.0407 15.3709 20.8966C15.3354 20.7525 15.3323 20.6023 15.362 20.457L16.069 16.921C16.1079 16.7273 16.2032 16.5495 16.343 16.41L25.535 7.21796C25.7225 7.03049 25.9768 6.92517 26.242 6.92517C26.5072 6.92517 26.7615 7.03049 26.949 7.21796L29.778 10.047C29.9655 10.2345 30.0708 10.4888 30.0708 10.754C30.0708 11.0191 29.9655 11.2734 29.778 11.461L20.586 20.653C20.4465 20.7928 20.2687 20.8881 20.075 20.927L16.539 21.634C16.4745 21.6476 16.4089 21.6553 16.343 21.657ZM17.971 17.614L17.617 19.383L19.386 19.029L27.657 10.758L26.242 9.34296L17.971 17.614Z" fill="#FF931E"/>
<path d="M18 9H12C11.7348 9 11.4804 8.89464 11.2929 8.70711C11.1054 8.51957 11 8.26522 11 8C11 7.73478 11.1054 7.48043 11.2929 7.29289C11.4804 7.10536 11.7348 7 12 7H18C18.2652 7 18.5196 7.10536 18.7071 7.29289C18.8946 7.48043 19 7.73478 19 8C19 8.26522 18.8946 8.51957 18.7071 8.70711C18.5196 8.89464 18.2652 9 18 9Z" fill="#2E3192"/>
<path d="M16 13H12C11.7348 13 11.4804 12.8946 11.2929 12.7071C11.1054 12.5196 11 12.2652 11 12C11 11.7348 11.1054 11.4804 11.2929 11.2929C11.4804 11.1054 11.7348 11 12 11H16C16.2652 11 16.5196 11.1054 16.7071 11.2929C16.8946 11.4804 17 11.7348 17 12C17 12.2652 16.8946 12.5196 16.7071 12.7071C16.5196 12.8946 16.2652 13 16 13Z" fill="#2E3192"/>
</svg>
