<svg width="63" height="40" viewBox="0 0 63 40" fill="none" xmlns="http://www.w3.org/2000/svg">
<g clip-path="url(#clip0)">
<path fill-rule="evenodd" clip-rule="evenodd" d="M56.3684 6.66669V16.6667H12.6994L22.2489 7.06669C23.542 5.76669 23.542 3.66669 22.2489 2.36669C20.9557 1.06669 18.8668 1.06669 17.5736 2.36669L2.35415 17.6667C1.06099 18.9667 1.06099 21.0667 2.35415 22.3667L17.5736 37.6667C18.8668 38.9667 20.9557 38.9667 22.2489 37.6667C23.542 36.3667 23.542 34.2667 22.2489 32.9667L12.6994 23.3334H59.6841C61.5078 23.3334 62.9999 21.8334 62.9999 20V6.66669C62.9999 4.83336 61.5078 3.33336 59.6841 3.33336C57.8605 3.33336 56.3684 4.83336 56.3684 6.66669Z" fill="#1D1D1D"/>
</g>
<defs>
<clipPath id="clip0">
<rect width="63" height="40" fill="white"/>
</clipPath>
</defs>
</svg>
