<svg width="46" height="46" viewBox="0 0 46 46" fill="none" xmlns="http://www.w3.org/2000/svg">
<g clip-path="url(#clip0)">
<path d="M23 3.83333C28.2843 3.83333 32.5833 8.13242 32.5833 13.4186C32.5833 18.7009 28.2843 23.0019 23 23.0019C17.7157 23.0019 13.4167 18.7009 13.4167 13.4186C13.4167 8.13242 17.7157 3.83333 23 3.83333ZM23 0C15.5902 0 9.58333 6.00683 9.58333 13.4186C9.58333 20.8265 15.5902 26.8353 23 26.8353C30.4098 26.8353 36.4167 20.8265 36.4167 13.4186C36.4167 6.00683 30.4098 0 23 0V0ZM35.2072 25.5932C34.2547 26.5477 33.1813 27.3777 32.0294 28.0887C37.5341 31.6806 40.4206 37.8312 41.5591 42.1686H4.40067C5.497 37.7794 8.34517 31.6212 13.9323 28.0657C12.7765 27.3489 11.7051 26.5113 10.7544 25.5511C2.59325 31.4391 0 41.8542 0 46H46C46 41.8945 43.24 31.5157 35.2072 25.5932Z" fill="black"/>
</g>
<defs>
<clipPath id="clip0">
<rect width="46" height="46" fill="white"/>
</clipPath>
</defs>
</svg>
