<svg width="25" height="25" viewBox="0 0 25 25" fill="none" xmlns="http://www.w3.org/2000/svg">
<path d="M10.4167 9.80004L13.5031 12.5L10.4167 15.2V13.5417H2.08333V11.4584H10.4167V9.80004ZM8.33333 5.20837V9.37504H0V15.625H8.33333V19.7917L16.6667 12.5L8.33333 5.20837ZM14.5833 2.08337C12.7219 2.08337 10.9792 2.57712 9.46771 3.43233L9.70521 3.64067L11.1594 4.91254C12.2052 4.43754 13.3615 4.16671 14.5833 4.16671C19.1781 4.16671 22.9167 7.90525 22.9167 12.5C22.9167 17.0948 19.1781 20.8334 14.5833 20.8334C13.3615 20.8334 12.2052 20.5625 11.1583 20.0886L9.70417 21.3605L9.46667 21.5688C10.9792 22.423 12.7219 22.9167 14.5833 22.9167C20.3354 22.9167 25 18.2532 25 12.5C25 6.74692 20.3354 2.08337 14.5833 2.08337Z" fill="black"/>
</svg>
