<svg width="270" height="270" viewBox="0 0 270 270" fill="none" xmlns="http://www.w3.org/2000/svg">
<path d="M64.0212 224.493C93.621 250.013 131.759 265.891 173.504 267.184C173.504 267.173 173.493 267.163 173.493 267.163C173.136 265.901 172.767 264.671 172.378 263.462C171.979 262.179 171.569 260.927 171.159 259.708C159.455 225.439 142.19 213.862 142.19 213.862L116.176 192.59C116.134 192.58 108.289 192.58 100.393 192.58C92.3697 192.58 84.3048 192.59 84.3048 192.59C84.3048 192.59 82.1805 195.387 78.9523 200.109C75.9138 204.567 71.8759 210.75 67.7015 217.942C67.0705 219.025 66.4292 220.14 65.7981 221.275C65.2619 222.232 64.7257 223.2 64.1895 224.177C64.1369 224.283 64.0739 224.388 64.0212 224.493Z" fill="#235568"/>
<path d="M84.3037 192.592L142.186 213.859L148.043 160.154L101.757 137.548L90.8626 169.884L84.3037 192.592Z" fill="#EEA780"/>
<path d="M75.0858 70.3352C86.5292 28.3129 110.369 20.3602 144.379 19.8414C182.852 19.2586 198.333 36.0581 203.709 56.2926C205.828 64.2733 203.939 78.9292 202.357 87.5586C200.887 95.5408 199.211 99.4564 199.086 102.249C198.765 109.473 203.798 121.741 208.668 123.68C210.249 124.31 210.906 128.263 210.459 128.968C209.256 130.871 205.907 131.495 203.496 134.557C199.375 139.806 201.528 145.226 197.295 153.237C193.977 159.515 192.28 168.905 187.876 177.541C184.827 183.52 166.238 187.143 154.676 182.422C129.577 172.174 88.5718 159.901 81.4917 136.552C74.4175 113.206 72.0078 79.9861 75.0858 70.3352Z" fill="#EEA780"/>
<path d="M56.1987 91.2857C57.0293 55.527 74.0895 20.651 101.279 9.72986C153.673 -11.3138 195.665 29.993 210.25 41.8492C220.249 49.9815 219.735 67.0974 203.71 61.0351C148.043 39.9725 131.78 67.4966 131.78 67.4966C131.78 67.4966 128.006 88.5606 128.351 98.531C128.693 108.496 123.989 119.753 121.615 117.933C117.09 94.3641 113.387 95.2363 113.387 95.2363C113.387 95.2363 111.452 103.237 109.953 126.159C109.953 136.947 95.3917 166.27 90.8625 169.884C83.4582 156.305 55.6738 113.887 56.1987 91.2857Z" fill="#3F4042"/>
<path d="M197.168 131.442C197.168 131.442 199.714 133.613 204.346 133.613C205.601 131.851 212.487 128.855 209.509 128.423C208.221 128.235 197.168 131.442 197.168 131.442Z" fill="#CFB4B3"/>
<path d="M195.097 82.7879C194.033 80.8113 177.069 81.6138 174.314 82.1305C168.742 83.1751 162.113 91.0933 163.06 92.2733C164.005 93.4513 171.055 87.9779 177.238 88.4379C179.631 88.6175 191.662 90.5873 193.237 89.8896C194.809 89.1892 196.161 84.7641 195.097 82.7879Z" fill="#1B2D57"/>
<path d="M142.186 177.532C142.186 177.532 126.849 170.242 122.753 166.179C118.656 162.121 115.439 142.776 115.439 142.776L125.679 162.523L142.186 177.532Z" fill="#E8C9C7"/>
<path d="M119.226 108.184C118.951 119.06 119.528 127.224 111.456 126.048C103.384 124.875 94.4904 116.999 94.2318 106.121C93.9429 94.1409 100.7 89.0169 107.395 88.2874C112.656 87.7196 119.534 96.0649 119.226 108.184Z" fill="#EEA780"/>
<path d="M196.669 154.5C193.154 151.603 181.583 149.917 177.143 147.857" stroke="#CFB4B3" stroke-width="4.4667" stroke-miterlimit="10"/>
<path d="M184.205 100.415C184.018 103.136 182.287 105.227 180.34 105.095C178.394 104.959 176.972 102.644 177.161 99.9222C177.351 97.2027 179.079 95.1067 181.025 95.2432C182.974 95.3756 184.395 97.6939 184.205 100.415Z" fill="#1B2D57"/>
<path d="M136.555 112.205L119.226 108.184L118.771 102.207L138.64 107.21L136.555 112.205Z" fill="#D0D2D3"/>
<path d="M136.555 145.277L109.312 131.013L103.199 122.573L109.953 126.159L134.966 139.029L136.555 145.277Z" fill="#D0D2D3"/>
<path d="M165.224 186.324C165.224 186.324 181.031 185.277 186.906 181.008C200.25 171.313 212.448 140.04 212.448 128.415C212.448 121.276 200.927 112.484 200.557 111.247C200.184 110.01 170.539 115.646 138.64 107.21C135.514 109.704 130.66 130.066 133.638 140.352C142.186 169.884 165.224 186.324 165.224 186.324Z" fill="#9CDBF8"/>
</svg>
