<svg width="122" height="122" viewBox="0 0 122 122" fill="none" xmlns="http://www.w3.org/2000/svg">
<path d="M15.25 15.25V66.0833C15.25 87.4333 33.7137 106.75 61 116.917C88.2873 106.75 106.75 87.4333 106.75 66.0833V15.25H15.25Z" fill="#E0E0E0"/>
<path d="M15.25 10.1667V61C15.25 82.35 33.7137 101.667 61 111.833C88.2873 101.667 106.75 82.35 106.75 61V10.1667H15.25Z" fill="white"/>
<path d="M15.25 10.1667V61C15.25 82.35 33.7137 101.667 61 111.833V10.1667H15.25Z" fill="white"/>
<path d="M25.4167 20.3333V61C25.4167 78.2833 39.7777 93.5333 61.0001 101.667C82.223 93.5333 96.5834 78.2833 96.5834 61V20.3333H25.4167Z" fill="#27AE60"/>
<path d="M61 20.3333V101.667C82.2229 93.5333 96.5833 78.2833 96.5833 61V20.3333H61Z" fill="#2ECC71"/>
<path d="M81.3333 45.75L57.528 69.1332L47.6099 59.4748L39.1787 68.1168L49.0973 77.7746L57.0349 85.9085L57.528 86.4167L89.7665 53.8832L81.3333 45.75Z" fill="#27AE60"/>
<path d="M81.3333 40.6667L57.528 64.0499L47.6099 54.3914L39.1787 63.0335L49.0973 72.6913L57.0349 80.8251L57.528 81.3333L89.7665 48.7999L81.3333 40.6667Z" fill="white"/>
</svg>
