<svg width="66" height="66" viewBox="0 0 66 66" fill="none" xmlns="http://www.w3.org/2000/svg">
<path d="M30.17 9.54463L28.7566 2.14427L27.5716 2.36989L26.3884 2.59583L27.803 9.99742C27.803 9.99742 28.0081 11.8764 27.0824 13.0501L29.5247 12.5833L31.9667 12.1161C30.6718 11.3664 30.17 9.54463 30.17 9.54463Z" fill="#38BCF4"/>
<path d="M30.9576 1.72333C31.0982 2.4593 29.6973 3.34584 27.8269 3.70247C25.9574 4.05941 24.3266 3.75298 24.1858 3.01677C24.0465 2.28234 25.4489 1.3958 27.3181 1.03733C29.1873 0.680689 30.8165 0.987422 30.9576 1.72333Z" fill="#38BCF4"/>
<path d="M38.0052 12.2444L39.1146 4.7926L37.9216 4.61411L36.7299 4.43721L35.6202 11.8905C35.6202 11.8905 35.1937 13.7304 33.9309 14.5333L36.391 14.8986L38.8501 15.2649C37.8769 14.1289 38.0052 12.2444 38.0052 12.2444Z" fill="#38BCF4"/>
<path d="M41.3313 5.12168C41.2211 5.86316 39.6054 6.2366 37.7224 5.95649C35.8391 5.67638 34.4021 4.84831 34.512 4.10689C34.6237 3.36541 36.2392 2.99319 38.1225 3.27331C40.0043 3.55495 41.4412 4.38149 41.3313 5.12168Z" fill="#38BCF4"/>
<path d="M45.9923 13.2439L50.0861 6.91961L49.0728 6.26446L48.0608 5.60937L43.9669 11.9349C43.9669 11.9349 42.8183 13.4349 41.3379 13.6413L43.4248 14.9934L45.5113 16.3441C45.0944 14.9083 45.9923 13.2439 45.9923 13.2439Z" fill="#38BCF4"/>
<path d="M51.9679 8.13677C51.5595 8.76523 49.9342 8.43645 48.3368 7.40203C46.7392 6.36761 45.7718 5.02006 46.179 4.39124C46.5858 3.76125 48.2126 4.09003 49.8099 5.12445C51.4089 6.15855 52.375 7.50794 51.9679 8.13677Z" fill="#38BCF4"/>
<path d="M52.0335 18.8794L57.6745 13.8852L56.8746 12.9834L56.0756 12.08L50.4334 17.0745C50.4334 17.0745 48.9251 18.2106 47.4419 18.0125L49.0894 19.8747L50.737 21.7372C50.7233 20.2414 52.0335 18.8794 52.0335 18.8794Z" fill="#38BCF4"/>
<path d="M59.1592 15.5634C58.5986 16.0597 57.1225 15.3069 55.8582 13.8809C54.5981 12.4562 54.0294 10.898 54.5899 10.4018C55.1516 9.90556 56.629 10.6583 57.8906 12.0843C59.1521 13.5087 59.7221 15.0672 59.1592 15.5634Z" fill="#38BCF4"/>
<path d="M53.3421 27.3029L60.2337 24.2572L59.7444 23.1533L59.258 22.0521L52.3664 25.0991C52.3664 25.0991 50.5836 25.7235 49.2317 25.0852L50.2352 27.3574L51.2414 29.6319C51.6792 28.2032 53.3421 27.3029 53.3421 27.3029Z" fill="#38BCF4"/>
<path d="M61.1382 26.3061C60.4552 26.6101 59.2745 25.4434 58.5052 23.7025C57.7355 21.9628 57.6676 20.3041 58.3518 20.0017C59.0363 19.6989 60.2155 20.8644 60.9863 22.6068C61.7556 24.3463 61.8242 26.0036 61.1382 26.3061Z" fill="#38BCF4"/>
<path d="M56.5525 34.4047L64.0851 34.5303L64.1047 33.3259L64.1256 32.1188L56.5914 31.9961C56.5914 31.9961 54.7096 31.8133 53.7506 30.6663L53.7089 33.153L53.667 35.6397C54.6653 34.526 56.5525 34.4047 56.5525 34.4047Z" fill="#38BCF4"/>
<path d="M64.049 36.7717C63.2989 36.7592 62.7176 35.2049 62.7482 33.3021C62.7804 31.3995 63.4131 29.8664 64.1616 29.8774C64.9116 29.8914 65.4929 31.4442 65.4609 33.3483C65.4287 35.2497 64.7974 36.7843 64.049 36.7717Z" fill="#38BCF4"/>
<path d="M54.9006 42.4783L62.0068 44.9818L62.4081 43.8458L62.8083 42.7085L55.7006 40.2062C55.7006 40.2062 53.9752 39.4369 53.4272 38.0458L52.6007 40.3917L51.7742 42.7376C53.0734 41.9958 54.9006 42.4783 54.9006 42.4783Z" fill="#38BCF4"/>
<path d="M61.2623 47.0962C60.5573 46.8483 60.4972 45.1909 61.1285 43.3939C61.7601 41.6 62.8459 40.3458 63.5524 40.5938C64.2593 40.8417 64.3193 42.5006 63.6865 44.2961C63.055 46.0912 61.9691 47.3457 61.2623 47.0962Z" fill="#38BCF4"/>
<path d="M48.366 47.3319L53.6391 52.7137L54.5005 51.8703L55.3619 51.0257L50.0873 45.6452C50.0873 45.6452 48.8775 44.1929 48.9988 42.7042L47.2229 44.4436L45.447 46.1833C46.94 46.0927 48.366 47.3319 48.366 47.3319Z" fill="#38BCF4"/>
<path d="M52.0404 54.282C51.5148 53.7466 52.1923 52.2327 53.5515 50.9002C54.9116 49.5676 56.4379 48.921 56.962 49.4562C57.4876 49.9916 56.809 51.5051 55.4498 52.8376C54.0908 54.1702 52.5629 54.8171 52.0404 54.282Z" fill="#38BCF4"/>
<path d="M43.5374 53.918L47.1378 60.5362L48.1958 59.9607L49.2553 59.3836L45.6534 52.7654C45.6534 52.7654 44.8868 51.0398 45.4097 49.6386L43.2267 50.8276L41.0425 52.0154C42.5033 52.3359 43.5374 53.918 43.5374 53.918Z" fill="#38BCF4"/>
<path d="M45.1697 61.6083C44.8116 60.9504 45.8751 59.679 47.5478 58.7689C49.2205 57.8585 50.8668 57.6552 51.225 58.313C51.5819 58.971 50.5169 60.2423 48.8442 61.1512C47.1727 62.0613 45.5267 62.2661 45.1697 61.6083Z" fill="#38BCF4"/>
<path d="M35.9825 56.3407L37.1507 63.7842L38.3425 63.596L39.533 63.4107L38.3648 55.9657C38.3648 55.9657 38.2212 54.0824 39.1858 52.9408L36.731 53.3256L34.2737 53.7104C35.5407 54.5033 35.9825 56.3407 35.9825 56.3407Z" fill="#38BCF4"/>
<path d="M34.937 64.131C34.8212 63.3924 36.2515 62.5533 38.1317 62.2579C40.0123 61.9621 41.632 62.3218 41.7477 63.0636C41.8647 63.8023 40.4332 64.6414 38.553 64.9368C36.6725 65.2322 35.0542 64.8713 34.937 64.131Z" fill="#38BCF4"/>
<path d="M28.2894 53.8305L26.6155 61.176L27.7904 61.4436L28.9669 61.7114L30.6396 54.3655C30.6396 54.3655 31.2056 52.5618 32.5256 51.8593L30.1017 51.3073L27.6762 50.7538C28.5601 51.9597 28.2894 53.8305 28.2894 53.8305Z" fill="#38BCF4"/>
<path d="M24.4313 60.6785C24.5972 59.9497 26.2366 59.6986 28.0929 60.1223C29.9484 60.5447 31.3198 61.48 31.1527 62.2104C30.9852 62.9408 29.3462 63.1888 27.4896 62.7666C25.6341 62.3442 24.2639 61.409 24.4313 60.6785Z" fill="#38BCF4"/>
<path d="M20.3986 52.7262L16.3452 59.0784L17.3612 59.7265L18.3788 60.3761L22.431 54.0227C22.431 54.0227 23.5711 52.5172 25.0515 52.2998L22.9564 50.963L20.86 49.6249C21.2837 51.0578 20.3986 52.7262 20.3986 52.7262Z" fill="#38BCF4"/>
<path d="M14.4564 57.8725C14.858 57.2426 16.486 57.5604 18.0916 58.5834C19.696 59.608 20.6704 60.9504 20.2661 61.5804C19.8647 62.2132 18.2368 61.8954 16.6307 60.8696C15.0264 59.8465 14.0523 58.5041 14.4564 57.8725Z" fill="#38BCF4"/>
<path d="M16.4776 45.6146L10.4534 50.1391L11.1783 51.1038L11.9031 52.0668L17.9275 47.541C17.9275 47.541 19.5233 46.529 20.9857 46.8455L19.4915 44.8575L17.9972 42.8686C17.8938 44.36 16.4776 45.6146 16.4776 45.6146Z" fill="#38BCF4"/>
<path d="M9.1081 48.3468C9.70594 47.8977 11.1194 48.7662 12.2639 50.2898C13.407 51.8106 13.8488 53.4092 13.2494 53.8583C12.65 54.3098 11.2378 53.4398 10.0936 51.9177C8.95047 50.3957 8.50874 48.7983 9.1081 48.3468Z" fill="#38BCF4"/>
<path d="M10.3014 40.0641L3.13525 42.3919L3.50747 43.5378L3.8822 44.6833L11.0471 42.3555C11.0471 42.3555 12.8842 41.9165 14.1651 42.6901L13.397 40.3262L12.6277 37.9592C12.0466 39.3365 10.3014 40.0641 10.3014 40.0641Z" fill="#38BCF4"/>
<path d="M2.44254 40.2592C3.15487 40.0277 4.2101 41.3073 4.79972 43.1193C5.38627 44.9288 5.28612 46.5847 4.57378 46.8161C3.86022 47.0476 2.80622 45.768 2.21814 43.956C1.62976 42.1464 1.73014 40.4905 2.44254 40.2592Z" fill="#38BCF4"/>
<path d="M9.37137 31.8498L1.83748 31.8373L1.83595 33.0415L1.83325 34.2486L9.36892 34.2599C9.36892 34.2599 11.2519 34.413 12.2291 35.5451L12.2334 33.0584L12.2373 30.5729C11.2559 31.7004 9.37137 31.8498 9.37137 31.8498Z" fill="#38BCF4"/>
<path d="M1.84018 29.5973C2.58866 29.5973 3.19362 31.1417 3.19239 33.0458C3.1881 34.9484 2.5789 36.4916 1.83043 36.4901C1.08042 36.4901 0.475459 34.9457 0.478527 33.0415C0.480976 31.1374 1.09171 29.5945 1.84018 29.5973Z" fill="#38BCF4"/>
<path d="M13.4112 24.2933L6.11409 22.413L5.81435 23.5812L5.51343 24.7479L12.8106 26.6269C12.8106 26.6269 14.5963 27.2429 15.2624 28.581L15.8826 26.1754L16.5029 23.7665C15.2734 24.6169 13.4112 24.2933 13.4112 24.2933Z" fill="#38BCF4"/>
<path d="M6.67298 20.2426C7.39783 20.4297 7.60143 22.0772 7.12754 23.9198C6.65088 25.7627 5.67924 27.1063 4.95432 26.9196C4.22818 26.7328 4.02465 25.0865 4.49976 23.2424C4.97549 21.3995 5.94684 20.0559 6.67298 20.2426Z" fill="#38BCF4"/>
<path d="M16.1347 17.2095L10.2136 12.5499L9.46911 13.4977L8.72339 14.4455L14.6448 19.1053C14.6448 19.1053 16.0316 20.3877 16.1029 21.8819L17.6403 19.9276L19.1777 17.9736C17.7098 18.2549 16.1347 17.2095 16.1347 17.2095Z" fill="#38BCF4"/>
<path d="M11.6006 10.7893C12.1887 11.2519 11.712 12.8411 10.5341 14.3368C9.35762 15.8325 7.92614 16.6701 7.33781 16.206C6.74819 15.7431 7.22485 14.154 8.4028 12.6586C9.57926 11.1628 11.0123 10.3253 11.6006 10.7893Z" fill="#38BCF4"/>
<path d="M23.2982 13.6859L19.7005 7.06619L18.641 7.64176L17.5818 8.21879L21.1794 14.8385C21.1794 14.8385 21.9475 16.5642 21.4203 17.965L23.6049 16.7775L25.7919 15.5898C24.3295 15.2692 23.2982 13.6859 23.2982 13.6859Z" fill="#38BCF4"/>
<path d="M21.6698 5.9957C22.0268 6.65201 20.9606 7.92335 19.2879 8.83352C17.6167 9.7424 15.9688 9.94599 15.6122 9.28808C15.254 8.6287 16.3218 7.3589 17.9941 6.44995C19.6656 5.54107 21.312 5.33625 21.6698 5.9957Z" fill="#38BCF4"/>
<path d="M53.6657 29.5569C53.3826 27.9175 54.4809 26.3563 56.1218 26.0719L56.1622 26.0664C55.9252 25.2913 55.6519 24.5302 55.3427 23.7916L55.3063 23.8111C53.8623 24.6404 52.0194 24.1427 51.1916 22.6987C50.362 21.2547 50.861 19.4121 52.3038 18.584L52.3359 18.566C51.8507 17.9234 51.3309 17.3044 50.7844 16.7132L50.7621 16.7399C49.6904 18.0125 47.789 18.1769 46.5149 17.1035C45.2423 16.033 45.0792 14.132 46.1512 12.8579L46.1732 12.8312C45.4988 12.3938 44.8018 11.9909 44.0827 11.6199L44.0714 11.6535C43.4998 13.2173 41.7702 14.0218 40.2047 13.4518C38.6434 12.8802 37.838 11.1503 38.408 9.58784L38.4205 9.55416C37.6399 9.37566 36.8455 9.23637 36.0398 9.1363V9.16813C36.0398 10.8325 34.6903 12.1832 33.0275 12.1832C31.3618 12.1832 30.0124 10.8325 30.0124 9.16813V9.1363C29.2639 9.22815 28.5268 9.35486 27.8003 9.51525L27.8128 9.54863C28.3731 11.1154 27.5551 12.8411 25.9883 13.4012C24.42 13.959 22.6959 13.1423 22.1354 11.5755L22.1244 11.5418C21.4022 11.9058 20.7039 12.3059 20.0265 12.7379L20.0473 12.7642C21.1095 14.0453 20.9326 15.9455 19.653 17.009C18.3719 18.071 16.472 17.894 15.407 16.6129L15.3877 16.5893C14.837 17.1762 14.3157 17.7896 13.8237 18.4307L13.8543 18.4475C15.2901 19.2866 15.7753 21.1319 14.9362 22.5692C14.0983 24.0061 12.2514 24.4914 10.8142 23.6523L10.7781 23.6327C10.463 24.3702 10.1829 25.1269 9.94017 25.9005L9.98337 25.9075C11.6199 26.2029 12.7085 27.7725 12.4131 29.409C12.1177 31.0483 10.5509 32.1354 8.91158 31.84L8.87543 31.8345C8.85309 32.2624 8.84058 32.6944 8.84058 33.1279C8.84058 33.5044 8.85156 33.8779 8.86843 34.2502L8.90451 34.2447C10.5438 33.9602 12.1036 35.0599 12.388 36.6992C12.6712 38.3413 11.5712 39.8995 9.93035 40.1838L9.89151 40.1909C10.1269 40.9672 10.4003 41.7255 10.7098 42.4673L10.7474 42.4449C12.1914 41.6169 14.0328 42.1143 14.8621 43.5571C15.6917 45.0014 15.1924 46.844 13.7484 47.6721L13.7178 47.6916C14.2043 48.3354 14.7228 48.9517 15.2705 49.5425L15.2901 49.5177C16.3621 48.2437 18.2648 48.0804 19.5373 49.1522C20.8114 50.2243 20.9743 52.1269 19.9013 53.3994L19.8817 53.4261C20.5549 53.8638 21.2519 54.2679 21.9698 54.6375L21.9836 54.6038C22.5524 53.0413 24.2835 52.2359 25.8476 52.8059C27.4116 53.3759 28.2158 55.1071 27.6457 56.6711L27.6317 56.7032C28.4123 56.8801 29.2067 57.0194 30.0124 57.1198V57.0892C30.0124 55.4236 31.3619 54.0757 33.0275 54.0757C34.6904 54.0757 36.0398 55.4236 36.0398 57.0892V57.1198C36.7898 57.028 37.5257 56.9025 38.2519 56.7421L38.2393 56.7075C37.6804 55.1404 38.4986 53.4148 40.0654 52.8558C41.6321 52.2971 43.3578 53.1138 43.9168 54.6833L43.9294 54.7167C44.65 54.3515 45.3498 53.9514 46.0285 53.5179L46.0061 53.4928C44.9442 52.212 45.1199 50.3121 46.4007 49.2499C47.6816 48.1852 49.583 48.3633 50.6452 49.6429L50.6645 49.668C51.2164 49.0797 51.7381 48.4665 52.2285 47.8267L52.2006 47.8102C50.7621 46.9707 50.277 45.1239 51.1163 43.6881C51.9554 42.2496 53.8011 41.7648 55.2396 42.6038L55.2757 42.6259C55.5907 41.8875 55.8708 41.1304 56.1133 40.3568L56.0716 40.3483C54.4336 40.0529 53.3437 38.4864 53.6392 36.8471C53.9361 35.2105 55.5041 34.1204 57.1407 34.4161L57.1771 34.4229C57.2007 33.9952 57.2132 33.5629 57.2132 33.1279C57.2132 32.7517 57.2007 32.3782 57.1838 32.0072L57.1504 32.013C55.5098 32.297 53.9501 31.1959 53.6657 29.5569Z" fill="#38BCF4"/>
<path d="M28.1251 25.3053C28.1251 27.6053 26.2614 29.4703 23.9615 29.4703C21.6616 29.4703 19.7966 27.6053 19.7966 25.3053C19.7966 23.0054 21.6616 21.1405 23.9615 21.1405C26.2614 21.1405 28.1251 23.0054 28.1251 25.3053Z" fill="#9CDBF8"/>
<path d="M37.191 34.0423C37.191 36.3437 35.3258 38.2071 33.0274 38.2071C30.7263 38.2071 28.8625 36.3437 28.8625 34.0423C28.8625 31.7423 30.7263 29.8774 33.0274 29.8774C35.3258 29.8774 37.191 31.7423 37.191 34.0423Z" fill="#9CDBF8"/>
<path d="M37.191 34.0423C37.191 36.3437 35.3258 38.2071 33.0274 38.2071C30.7263 38.2071 28.8625 36.3437 28.8625 34.0423C28.8625 31.7423 30.7263 29.8774 33.0274 29.8774C35.3258 29.8774 37.191 31.7423 37.191 34.0423Z" fill="#9CDBF8"/>
<path d="M25.0123 39.7099C25.0123 42.0099 23.1474 43.8749 20.8487 43.8749C18.5476 43.8749 16.6838 42.0099 16.6838 39.7099C16.6838 37.41 18.5476 35.545 20.8487 35.545C23.1474 35.545 25.0123 37.41 25.0123 39.7099Z" fill="#9CDBF8"/>
<path d="M41.3558 18.9045C41.3558 21.2045 39.4909 23.0697 37.191 23.0697C34.891 23.0697 33.0273 21.2045 33.0273 18.9045C33.0273 16.6046 34.8911 14.7396 37.191 14.7396C39.4909 14.7396 41.3558 16.6046 41.3558 18.9045Z" fill="#9CDBF8"/>
<path d="M32.9439 11.2507C33.1726 12.3769 31.5318 13.6633 29.2765 14.1207C27.024 14.5792 25.0097 14.0371 24.7813 12.9108C24.5527 11.7831 26.1932 10.4991 28.4457 10.0393C30.7012 9.58229 32.7137 10.1229 32.9439 11.2507Z" fill="#9CDBF8"/>
<path d="M52.3151 43.2785C53.0746 44.1427 52.29 46.0747 50.5616 47.5912C48.8329 49.1105 46.8173 49.6401 46.0578 48.7759C45.298 47.9117 46.0841 45.9798 47.8125 44.4632C49.5397 42.9439 51.5568 42.4143 52.3151 43.2785Z" fill="#9CDBF8"/>
<path d="M12.483 28.8794C13.6315 28.8555 14.6028 30.6999 14.6519 32.9996C14.6993 35.2995 13.8057 37.184 12.6556 37.2064C11.507 37.2316 10.5357 35.3862 10.4866 33.086C10.4395 30.7875 11.3316 28.9045 12.483 28.8794Z" fill="#9CDBF8"/>
<path d="M19.501 47.5215C20.1923 46.6028 22.2427 46.9805 24.0798 48.3648C25.9169 49.7488 26.8453 51.6168 26.1514 52.534C25.4598 53.4539 23.4094 53.0749 21.5738 51.6922C19.7365 50.3066 18.8083 48.4386 19.501 47.5215Z" fill="#9CDBF8"/>
<path d="M46.1677 17.5511C46.9903 16.7494 48.9599 17.4339 50.5643 19.0815C52.17 20.7278 52.8028 22.7156 51.9805 23.5185C51.1552 24.3212 49.1871 23.6354 47.5814 21.9879C45.9754 20.3403 45.3427 18.3525 46.1677 17.5511Z" fill="#9CDBF8"/>
<path d="M52.3626 33.0584C52.3626 35.358 50.4973 37.2233 48.1973 37.2233C45.8974 37.2233 44.0325 35.358 44.0325 33.0584C44.0325 30.7584 45.8974 28.8932 48.1973 28.8932C50.4973 28.8932 52.3626 30.7584 52.3626 33.0584Z" fill="#9CDBF8"/>
<path d="M41.1052 47.1284C41.1052 49.4283 39.2399 51.2933 36.94 51.2933C34.6404 51.2933 32.7751 49.4283 32.7751 47.1284C32.7751 44.8284 34.6404 42.9634 36.94 42.9634C39.2399 42.9634 41.1052 44.8284 41.1052 47.1284Z" fill="#9CDBF8"/>
</svg>
