<svg width="82" height="82" viewBox="0 0 82 82" fill="none" xmlns="http://www.w3.org/2000/svg">
<path d="M37.4842 11.8585L35.7282 2.66409L34.2559 2.94441L32.7859 3.22512L34.5434 12.421C34.5434 12.421 34.7982 14.7555 33.6481 16.2138L36.6825 15.6338L39.7164 15.0534C38.1076 14.1219 37.4842 11.8585 37.4842 11.8585Z" fill="#6EBE58"/>
<path d="M38.4627 2.14112C38.6373 3.0555 36.8969 4.15696 34.573 4.60004C32.2502 5.04352 30.2242 4.66279 30.0492 3.74811C29.8761 2.83563 31.6185 1.73418 33.9408 1.28881C36.2632 0.845709 38.2873 1.2268 38.4627 2.14112Z" fill="#6EBE58"/>
<path d="M47.2185 15.2127L48.5968 5.95444L47.1147 5.73268L45.634 5.51289L44.2553 14.7731C44.2553 14.7731 43.7254 17.0589 42.1565 18.0566L45.213 18.5103L48.2682 18.9655C47.0591 17.5541 47.2185 15.2127 47.2185 15.2127Z" fill="#6EBE58"/>
<path d="M51.3509 6.3633C51.214 7.28453 49.2066 7.74851 46.8671 7.40049C44.5273 7.05247 42.7419 6.02366 42.8784 5.1025C43.0173 4.18127 45.0243 3.71881 47.3642 4.06683C49.7022 4.41676 51.4875 5.44367 51.3509 6.3633Z" fill="#6EBE58"/>
<path d="M57.1421 16.4545L62.2284 8.5971L60.9695 7.78312L59.712 6.96922L54.6257 14.8282C54.6257 14.8282 53.1987 16.6919 51.3594 16.9482L53.9522 18.6282L56.5446 20.3063C56.0266 18.5224 57.1421 16.4545 57.1421 16.4545Z" fill="#6EBE58"/>
<path d="M64.5664 10.1093C64.059 10.8901 62.0398 10.4816 60.0551 9.19646C58.0702 7.91127 56.8683 6.23704 57.3741 5.45579C57.8796 4.67307 59.9007 5.08155 61.8853 6.36674C63.8719 7.65153 65.0722 9.32804 64.5664 10.1093Z" fill="#6EBE58"/>
<path d="M64.6476 23.4562L71.6562 17.2514L70.6623 16.1308L69.6696 15.0085L62.6595 21.2137C62.6595 21.2137 60.7856 22.6253 58.9429 22.3792L60.9898 24.6928L63.0368 27.0068C63.0198 25.1484 64.6476 23.4562 64.6476 23.4562Z" fill="#6EBE58"/>
<path d="M73.5007 19.3364C72.8043 19.9529 70.9703 19.0177 69.3995 17.246C67.834 15.4759 67.1274 13.5399 67.8238 12.9234C68.5216 12.3069 70.3572 13.2422 71.9246 15.0138C73.4919 16.7836 74.2002 18.7199 73.5007 19.3364Z" fill="#6EBE58"/>
<path d="M66.2736 33.9218L74.8359 30.1377L74.2281 28.7662L73.6237 27.3981L65.0614 31.1837C65.0614 31.1837 62.8464 31.9595 61.1667 31.1665L62.4135 33.9895L63.6637 36.8154C64.2076 35.0403 66.2736 33.9218 66.2736 33.9218Z" fill="#6EBE58"/>
<path d="M75.9597 32.6833C75.1112 33.061 73.6442 31.6115 72.6884 29.4485C71.7322 27.2871 71.6478 25.2263 72.4978 24.8506C73.3483 24.4744 74.8134 25.9224 75.7711 28.0873C76.7269 30.2484 76.8121 32.3075 75.9597 32.6833Z" fill="#6EBE58"/>
<path d="M70.2622 42.7452L79.6209 42.9012L79.6452 41.4049L79.6711 39.9052L70.3105 39.7527C70.3105 39.7527 67.9725 39.5256 66.781 38.1006L66.7292 41.19L66.6771 44.2796C67.9174 42.8959 70.2622 42.7452 70.2622 42.7452Z" fill="#6EBE58"/>
<path d="M79.576 45.6861C78.6442 45.6705 77.9219 43.7395 77.9599 41.3753C77.9999 39.0115 78.786 37.1067 79.7159 37.1204C80.6478 37.1379 81.37 39.067 81.3302 41.4327C81.2902 43.795 80.5059 45.7017 79.576 45.6861Z" fill="#6EBE58"/>
<path d="M68.2099 52.776L77.0389 55.8865L77.5374 54.475L78.0346 53.0621L69.2038 49.9532C69.2038 49.9532 67.0602 48.9973 66.3794 47.269L65.3525 50.1836L64.3256 53.0982C65.9397 52.1766 68.2099 52.776 68.2099 52.776Z" fill="#6EBE58"/>
<path d="M76.1139 58.5135C75.2379 58.2054 75.1634 56.1462 75.9476 53.9136C76.7323 51.6848 78.0814 50.1266 78.9592 50.4347C79.8374 50.7427 79.912 52.8038 79.1258 55.0345C78.3411 57.2648 76.9921 58.8235 76.1139 58.5135Z" fill="#6EBE58"/>
<path d="M60.0911 58.8063L66.6426 65.4928L67.7129 64.4449L68.7831 63.3956L62.2298 56.7107C62.2298 56.7107 60.7267 54.9063 60.8774 53.0567L58.6709 55.2178L56.4646 57.3793C58.3196 57.2667 60.0911 58.8063 60.0911 58.8063Z" fill="#6EBE58"/>
<path d="M64.6564 67.4412C64.0034 66.7761 64.8451 64.8952 66.5338 63.2396C68.2237 61.584 70.1201 60.7807 70.7712 61.4455C71.4242 62.1108 70.5811 63.9912 68.8924 65.6468C67.2039 67.3024 65.3057 68.1061 64.6564 67.4412Z" fill="#6EBE58"/>
<path d="M54.092 66.989L58.5651 75.2117L59.8796 74.4966L61.196 73.7796L56.7209 65.557C56.7209 65.557 55.7685 63.413 56.4182 61.6722L53.7059 63.1495L50.9922 64.6252C52.8072 65.0234 54.092 66.989 54.092 66.989Z" fill="#6EBE58"/>
<path d="M56.1199 76.5436C55.6749 75.7262 56.9962 74.1466 59.0744 73.0159C61.1526 71.8848 63.198 71.6322 63.6431 72.4495C64.0866 73.2669 62.7633 74.8465 60.6852 75.9757C58.6085 77.1065 56.5634 77.3609 56.1199 76.5436Z" fill="#6EBE58"/>
<path d="M44.7056 69.999L46.157 79.2471L47.6377 79.0132L49.1168 78.783L47.6654 69.5331C47.6654 69.5331 47.487 67.1933 48.6855 65.775L45.6355 66.253L42.5825 66.7311C44.1567 67.7162 44.7056 69.999 44.7056 69.999Z" fill="#6EBE58"/>
<path d="M43.4066 79.678C43.2628 78.7602 45.0398 77.7177 47.3758 77.3507C49.7123 76.9832 51.7246 77.4301 51.8684 78.3518C52.0137 79.2695 50.2353 80.312 47.8992 80.679C45.5628 81.0461 43.5523 80.5977 43.4066 79.678Z" fill="#6EBE58"/>
<path d="M35.1476 66.8803L33.0679 76.0066L34.5276 76.339L35.9893 76.6717L38.0675 67.545C38.0675 67.545 38.7707 65.3041 40.4108 64.4313L37.3992 63.7454L34.3858 63.0578C35.4839 64.556 35.1476 66.8803 35.1476 66.8803Z" fill="#6EBE58"/>
<path d="M30.3541 75.3885C30.5603 74.4829 32.597 74.171 34.9034 74.6974C37.2087 75.2223 38.9126 76.3843 38.7049 77.2917C38.4968 78.1992 36.4605 78.5073 34.1537 77.9828C31.8485 77.458 30.1461 76.296 30.3541 75.3885Z" fill="#6EBE58"/>
<path d="M25.3439 65.5083L20.3079 73.4004L21.5702 74.2056L22.8345 75.0127L27.869 67.1191C27.869 67.1191 29.2854 65.2486 31.1248 64.9786L28.5217 63.3176L25.9171 61.6551C26.4435 63.4354 25.3439 65.5083 25.3439 65.5083Z" fill="#6EBE58"/>
<path d="M17.9612 71.9022C18.4602 71.1195 20.4828 71.5144 22.4777 72.7855C24.4711 74.0585 25.6817 75.7263 25.1793 76.509C24.6806 77.2951 22.658 76.9004 20.6627 75.6259C18.6694 74.3547 17.4591 72.687 17.9612 71.9022Z" fill="#6EBE58"/>
<path d="M20.472 56.6726L12.9873 62.2941L13.888 63.4926L14.7885 64.6891L22.2733 59.0661C22.2733 59.0661 24.256 57.8087 26.0729 58.202L24.2165 55.732L22.36 53.261C22.2315 55.114 20.472 56.6726 20.472 56.6726Z" fill="#6EBE58"/>
<path d="M11.316 60.0672C12.0588 59.5092 13.8149 60.5883 15.2369 62.4812C16.6571 64.3707 17.206 66.3569 16.4613 66.9149C15.7166 67.4758 13.962 66.3949 12.5404 64.5038C11.1202 62.6128 10.5714 60.6282 11.316 60.0672Z" fill="#6EBE58"/>
<path d="M12.7989 49.7767L3.89551 52.6688L4.35796 54.0924L4.82353 55.5157L13.7254 52.6235C13.7254 52.6235 16.0078 52.0781 17.5992 53.0392L16.645 50.1022L15.6891 47.1614C14.9672 48.8726 12.7989 49.7767 12.7989 49.7767Z" fill="#6EBE58"/>
<path d="M3.03465 50.019C3.91968 49.7314 5.23071 51.3212 5.96327 53.5725C6.69201 55.8207 6.56759 57.8779 5.68256 58.1655C4.79602 58.4531 3.4865 56.8632 2.75585 54.612C2.02484 52.3638 2.14955 50.3064 3.03465 50.019Z" fill="#6EBE58"/>
<path d="M11.6431 39.5709L2.28284 39.5554L2.28094 41.0516L2.27759 42.5513L11.6401 42.5653C11.6401 42.5653 13.9795 42.7556 15.1936 44.162L15.1989 41.0726L15.2038 37.9845C13.9845 39.3853 11.6431 39.5709 11.6431 39.5709Z" fill="#6EBE58"/>
<path d="M2.28624 36.7724C3.21617 36.7724 3.96779 38.6913 3.96627 41.0569C3.96093 43.4208 3.20405 45.3381 2.27414 45.3362C1.3423 45.3362 0.590685 43.4174 0.594497 41.0516C0.59754 38.6859 1.35633 36.769 2.28624 36.7724Z" fill="#6EBE58"/>
<path d="M16.6623 30.1826L7.59613 27.8465L7.22372 29.2979L6.84985 30.7474L15.9161 33.0819C15.9161 33.0819 18.1346 33.8472 18.9623 35.5097L19.7328 32.5209L20.5034 29.528C18.9759 30.5846 16.6623 30.1826 16.6623 30.1826Z" fill="#6EBE58"/>
<path d="M8.29059 25.1499C9.19116 25.3823 9.44412 27.4293 8.85535 29.7186C8.26314 32.0082 7.05595 33.6776 6.15529 33.4455C5.25311 33.2135 5.00024 31.168 5.59053 28.8769C6.18159 26.5872 7.38841 24.9179 8.29059 25.1499Z" fill="#6EBE58"/>
<path d="M20.0459 21.3815L12.6894 15.5923L11.7644 16.7698L10.8379 17.9474L18.1948 23.7369C18.1948 23.7369 19.9178 25.3302 20.0064 27.1866L21.9165 24.7585L23.8266 22.3308C22.0028 22.6803 20.0459 21.3815 20.0459 21.3815Z" fill="#6EBE58"/>
<path d="M14.4128 13.4049C15.1435 13.9797 14.5513 15.954 13.0878 17.8124C11.6261 19.6707 9.84759 20.7113 9.11664 20.1348C8.38408 19.5596 8.97629 17.5853 10.4398 15.7273C11.9015 13.869 13.6819 12.8284 14.4128 13.4049Z" fill="#6EBE58"/>
<path d="M28.9464 17.0037L24.4766 8.77921L23.1602 9.4943L21.8442 10.2112L26.314 18.4357C26.314 18.4357 27.2683 20.5797 26.6133 22.3201L29.3275 20.8448L32.0446 19.3691C30.2278 18.9709 28.9464 17.0037 28.9464 17.0037Z" fill="#6EBE58"/>
<path d="M26.9232 7.4492C27.3667 8.26462 26.042 9.84416 23.9638 10.975C21.8875 12.1042 19.8401 12.3571 19.397 11.5397C18.952 10.7205 20.2787 9.14287 22.3564 8.01358C24.4331 6.88436 26.4786 6.62989 26.9232 7.4492Z" fill="#6EBE58"/>
<path d="M66.6755 36.7222C66.3237 34.6854 67.6883 32.7458 69.7269 32.3924L69.7772 32.3855C69.4828 31.4225 69.1431 30.477 68.759 29.5592L68.7138 29.5835C66.9197 30.6139 64.63 29.9955 63.6016 28.2014C62.5709 26.4073 63.1908 24.118 64.9834 23.0892L65.0233 23.0668C64.4205 22.2685 63.7747 21.4994 63.0957 20.7649L63.068 20.798C61.7364 22.3792 59.3741 22.5834 57.7911 21.2499C56.21 19.9198 56.0073 17.5579 57.3393 15.9749L57.3666 15.9419C56.5287 15.3984 55.6627 14.8978 54.7693 14.4369L54.7552 14.4787C54.0451 16.4215 51.8962 17.421 49.9511 16.7128C48.0114 16.0027 47.0107 13.8534 47.7189 11.9122L47.7345 11.8703C46.7646 11.6486 45.7777 11.4755 44.7766 11.3512V11.3907C44.7766 13.4586 43.1 15.1367 41.034 15.1367C38.9646 15.1367 37.288 13.4586 37.288 11.3907V11.3512C36.3581 11.4653 35.4423 11.6227 34.5397 11.822L34.5552 11.8635C35.2513 13.8101 34.235 15.9541 32.2884 16.65C30.3399 17.343 28.1978 16.3283 27.5015 14.3817L27.4878 14.3398C26.5905 14.7921 25.723 15.2892 24.8813 15.8258L24.9072 15.8585C26.2269 17.4503 26.0071 19.8111 24.4173 21.1324C22.8256 22.4518 20.4651 22.232 19.1419 20.6402L19.118 20.611C18.4337 21.3401 17.786 22.1023 17.1748 22.8987L17.2128 22.9196C18.9967 23.9621 19.5995 26.2548 18.557 28.0405C17.516 29.8258 15.2214 30.4287 13.4357 29.3862L13.3908 29.3619C12.9994 30.2781 12.6514 31.2183 12.3498 32.1794L12.4035 32.1882C14.4368 32.5552 15.7893 34.5052 15.4222 36.5385C15.0552 38.5752 13.1086 39.9258 11.0719 39.5588L11.0269 39.552C10.9992 40.0836 10.9836 40.6203 10.9836 41.1589C10.9836 41.6268 10.9973 42.0907 11.0183 42.5533L11.0631 42.5464C13.0998 42.193 15.0376 43.5593 15.391 45.596C15.7428 47.6362 14.3762 49.5721 12.3376 49.9254L12.2893 49.9342C12.5818 50.8987 12.9215 51.8408 13.306 52.7624L13.3528 52.7346C15.1468 51.7058 17.4346 52.3239 18.4649 54.1164C19.4957 55.9108 18.8753 58.2001 17.0813 59.229L17.0432 59.2533C17.6476 60.0531 18.2919 60.8188 18.9723 61.5529L18.9967 61.5221C20.3286 59.9391 22.6925 59.7363 24.2735 61.0679C25.8565 62.3998 26.0588 64.7637 24.7258 66.3448L24.7015 66.3779C25.5378 66.9217 26.4038 67.4238 27.2957 67.8829L27.3129 67.8411C28.0196 65.8998 30.1703 64.8991 32.1135 65.6074C34.0567 66.3155 35.0559 68.4664 34.3476 70.4095L34.3302 70.4494C35.3 70.6693 36.287 70.8423 37.2881 70.9671V70.929C37.2881 68.8596 38.9646 67.185 41.0341 67.185C43.1001 67.185 44.7767 68.8596 44.7767 70.929V70.9671C45.7085 70.853 46.6228 70.697 47.525 70.4977L47.5093 70.4547C46.8149 68.5078 47.8315 66.3638 49.7781 65.6693C51.7247 64.9752 53.8687 65.9899 54.5632 67.9399L54.5788 67.9814C55.4741 67.5277 56.3436 67.0305 57.1868 66.492L57.159 66.4608C55.8396 64.8695 56.0579 62.509 57.6493 61.1892C59.2406 59.8665 61.603 60.0878 62.9227 61.6776L62.9467 61.7088C63.6325 60.9778 64.2805 60.216 64.8898 59.4211L64.8552 59.4005C63.068 58.3576 62.4652 56.063 63.508 54.2792C64.5506 52.492 66.8437 51.8896 68.6309 52.932L68.6758 52.9595C69.0672 52.0421 69.4151 51.1015 69.7164 50.1403L69.6647 50.1297C67.6295 49.7627 66.2754 47.8164 66.6425 45.7797C67.0114 43.7464 68.9596 42.392 70.9929 42.7595L71.0381 42.7679C71.0674 42.2365 71.083 41.6994 71.083 41.159C71.083 40.6916 71.0674 40.2275 71.0465 39.7665L71.005 39.7738C68.9666 40.1266 67.0289 38.7586 66.6755 36.7222Z" fill="#6EBE58"/>
<path d="M34.9432 31.44C34.9432 34.2975 32.6277 36.6146 29.7702 36.6146C26.9127 36.6146 24.5957 34.2975 24.5957 31.44C24.5957 28.5825 26.9127 26.2654 29.7702 26.2654C32.6277 26.2654 34.9432 28.5825 34.9432 31.44Z" fill="#96CC77"/>
<path d="M46.2071 42.2949C46.2071 45.1543 43.8897 47.4695 41.0342 47.4695C38.1751 47.4695 35.8596 45.1543 35.8596 42.2949C35.8596 39.4374 38.1751 37.1204 41.0342 37.1204C43.8897 37.1204 46.2071 39.4375 46.2071 42.2949Z" fill="#96CC77"/>
<path d="M31.0761 49.3366C31.0761 52.1941 28.759 54.5112 25.9031 54.5112C23.044 54.5112 20.7285 52.1941 20.7285 49.3366C20.7285 46.4791 23.044 44.162 25.9031 44.162C28.759 44.162 31.0761 46.4791 31.0761 49.3366Z" fill="#96CC77"/>
<path d="M51.3817 23.4875C51.3817 26.345 49.0647 28.6624 46.2072 28.6624C43.3497 28.6624 41.0342 26.345 41.0342 23.4875C41.0342 20.6299 43.3497 18.3129 46.2072 18.3129C49.0646 18.3129 51.3817 20.6299 51.3817 23.4875Z" fill="#96CC77"/>
<path d="M40.9303 13.9781C41.2145 15.3774 39.1758 16.9756 36.3739 17.5439C33.5753 18.1136 31.0726 17.44 30.7889 16.0407C30.5048 14.6396 32.5431 13.0444 35.3416 12.4731C38.144 11.9053 40.6443 12.5769 40.9303 13.9781Z" fill="#96CC77"/>
<path d="M64.9974 53.7702C65.9411 54.844 64.9663 57.2443 62.8188 59.1285C60.6711 61.0161 58.1669 61.6741 57.2233 60.6004C56.2793 59.5267 57.256 57.1264 59.4034 55.2422C61.5493 53.3545 64.0554 52.6965 64.9974 53.7702Z" fill="#96CC77"/>
<path d="M15.5091 35.8805C16.9361 35.8508 18.1429 38.1423 18.2038 40.9995C18.2627 43.857 17.1525 46.1984 15.7236 46.2261C14.2966 46.2574 13.0898 43.9646 13.0288 41.1068C12.9703 38.2511 14.0786 35.9117 15.5091 35.8805Z" fill="#96CC77"/>
<path d="M24.2288 59.0418C25.0876 57.9004 27.6352 58.3697 29.9176 60.0896C32.2 61.8091 33.3536 64.13 32.4913 65.2695C31.6321 66.4124 29.0846 65.9416 26.8041 64.2236C24.5213 62.5021 23.3681 60.1813 24.2288 59.0418Z" fill="#96CC77"/>
<path d="M57.3599 21.8059C58.3819 20.8098 60.8291 21.6602 62.8224 23.7073C64.8174 25.7528 65.6035 28.2223 64.5819 29.22C63.5565 30.2172 61.1113 29.3652 59.1164 27.3183C57.1211 25.2712 56.3349 22.8016 57.3599 21.8059Z" fill="#96CC77"/>
<path d="M65.0566 41.0726C65.0566 43.9297 62.7391 46.2471 59.8816 46.2471C57.0241 46.2471 54.707 43.9297 54.707 41.0726C54.707 38.215 57.0241 35.8976 59.8816 35.8976C62.7391 35.8976 65.0566 38.215 65.0566 41.0726Z" fill="#96CC77"/>
<path d="M65.0566 41.0726C65.0566 43.9297 62.7391 46.2471 59.8816 46.2471C57.0241 46.2471 54.707 43.9297 54.707 41.0726C54.707 38.215 57.0241 35.8976 59.8816 35.8976C62.7391 35.8976 65.0566 38.215 65.0566 41.0726Z" fill="#96CC77"/>
<path d="M51.0701 58.5534C51.0701 61.4109 48.7527 63.728 45.8952 63.728C43.0381 63.728 40.7207 61.4109 40.7207 58.5534C40.7207 55.6959 43.0381 53.3788 45.8952 53.3788C48.7527 53.3788 51.0701 55.6959 51.0701 58.5534Z" fill="#96CC77"/>
</svg>
