<svg width="110" height="110" viewBox="0 0 110 110" fill="none" xmlns="http://www.w3.org/2000/svg">
<path d="M50.2835 15.9077L47.9278 3.57379L45.9528 3.94983L43.9808 4.32639L46.3385 16.6624C46.3385 16.6624 46.6803 19.794 45.1375 21.7502L49.208 20.9722L53.2779 20.1936C51.1197 18.9441 50.2835 15.9077 50.2835 15.9077Z" fill="#E64141"/>
<path d="M51.5962 2.87224C51.8304 4.09884 49.4957 5.57641 46.3783 6.1708C43.2624 6.7657 40.5445 6.25497 40.3098 5.02796C40.0777 3.80391 42.4149 2.32634 45.5303 1.7289C48.6457 1.13449 51.361 1.64571 51.5962 2.87224Z" fill="#E64141"/>
<path d="M63.3419 20.4073L65.1909 7.98765L63.2026 7.69015L61.2163 7.39532L59.3668 19.8175C59.3668 19.8175 58.6561 22.8839 56.5514 24.2222L60.6515 24.8309L64.75 25.4416C63.128 23.5481 63.3419 20.4073 63.3419 20.4073Z" fill="#E64141"/>
<path d="M68.8853 8.53612C68.7016 9.77192 66.0087 10.3943 62.8704 9.92747C59.7316 9.46061 57.3366 8.0805 57.5197 6.8448C57.706 5.609 60.3984 4.98864 63.5373 5.45549C66.6735 5.9249 69.0684 7.30246 68.8853 8.53612Z" fill="#E64141"/>
<path d="M76.654 22.0732L83.477 11.5327L81.7882 10.4408L80.1014 9.34897L73.2783 19.8915C73.2783 19.8915 71.364 22.3915 68.8966 22.7355L72.3747 24.989L75.8524 27.2402C75.1575 24.8472 76.654 22.0732 76.654 22.0732Z" fill="#E64141"/>
<path d="M86.6133 13.5613C85.9326 14.6087 83.2239 14.0608 80.5616 12.3367C77.8988 10.6127 76.2865 8.36678 76.9651 7.31875C77.6431 6.26877 80.3545 6.81673 83.0167 8.54076C85.6816 10.2643 87.2918 12.5132 86.6133 13.5613Z" fill="#E64141"/>
<path d="M86.7224 31.4657L96.1242 23.1421L94.791 21.6389L93.4593 20.1334L84.0556 28.4575C84.0556 28.4575 81.5418 30.351 79.0698 30.0208L81.8157 33.1245L84.5617 36.2286C84.5388 33.7356 86.7224 31.4657 86.7224 31.4657Z" fill="#E64141"/>
<path d="M98.5988 25.9391C97.6645 26.7661 95.2043 25.5115 93.0971 23.1349C90.9971 20.7603 90.0492 18.1634 90.9834 17.3363C91.9195 16.5093 94.3818 17.7639 96.4845 20.1405C98.587 22.5145 99.5371 25.112 98.5988 25.9391Z" fill="#E64141"/>
<path d="M88.9036 45.5048L100.39 40.4286L99.5742 38.5888L98.7636 36.7535L87.2776 41.8318C87.2776 41.8318 84.3062 42.8725 82.053 41.8087L83.7255 45.5956L85.4026 49.3865C86.1321 47.0053 88.9036 45.5048 88.9036 45.5048Z" fill="#E64141"/>
<path d="M101.897 43.8435C100.759 44.3501 98.791 42.4057 97.5089 39.5041C96.2262 36.6046 96.1129 33.8402 97.2532 33.3362C98.3941 32.8316 100.359 34.7739 101.644 37.678C102.926 40.5771 103.041 43.3394 101.897 43.8435Z" fill="#E64141"/>
<path d="M94.2542 57.3412L106.809 57.5504L106.841 55.5432L106.876 53.5314L94.319 53.3269C94.319 53.3269 91.1827 53.0222 89.5842 51.1105L89.5148 55.2549L89.4449 59.3994C91.1087 57.5433 94.2542 57.3412 94.2542 57.3412Z" fill="#E64141"/>
<path d="M106.748 61.2862C105.498 61.2653 104.529 58.6749 104.58 55.5035C104.634 52.3324 105.689 49.7773 106.936 49.7957C108.186 49.8191 109.155 52.407 109.101 55.5805C109.048 58.7494 107.996 61.3072 106.748 61.2862Z" fill="#E64141"/>
<path d="M91.501 70.7971L103.345 74.9697L104.014 73.0763L104.68 71.1808L92.8343 67.0104C92.8343 67.0104 89.9587 65.7281 89.0454 63.4097L87.6678 67.3195L86.2903 71.2293C88.4556 69.993 91.501 70.7971 91.501 70.7971Z" fill="#E64141"/>
<path d="M102.104 78.4937C100.929 78.0805 100.829 75.3181 101.881 72.3232C102.934 69.3333 104.743 67.243 105.921 67.6563C107.099 68.0696 107.199 70.8344 106.144 73.8268C105.092 76.8187 103.282 78.9095 102.104 78.4937Z" fill="#E64141"/>
<path d="M80.61 78.8865L89.3985 87.8561L90.8342 86.4505L92.27 85.0428L83.4789 76.0753C83.4789 76.0753 81.4626 73.6548 81.6647 71.1736L78.7049 74.0726L75.7451 76.9722C78.2335 76.8212 80.61 78.8865 80.61 78.8865Z" fill="#E64141"/>
<path d="M86.7341 90.4699C85.858 89.5776 86.9872 87.0546 89.2525 84.8336C91.5194 82.6126 94.0633 81.535 94.9368 82.4269C95.8128 83.3193 94.6817 85.8418 92.4164 88.0627C90.1514 90.2837 87.605 91.3618 86.7341 90.4699Z" fill="#E64141"/>
<path d="M72.5624 89.8634L78.563 100.894L80.3263 99.9344L82.0922 98.9727L76.089 87.9424C76.089 87.9424 74.8114 85.0663 75.6829 82.731L72.0445 84.7127L68.4042 86.6923C70.8389 87.2265 72.5624 89.8634 72.5624 89.8634Z" fill="#E64141"/>
<path d="M75.2829 102.68C74.6859 101.584 76.4585 99.465 79.2463 97.9482C82.0341 96.4308 84.778 96.092 85.375 97.1884C85.9699 98.2849 84.1948 100.404 81.407 101.919C78.6212 103.436 75.8778 103.777 75.2829 102.68Z" fill="#E64141"/>
<path d="M59.9709 93.9011L61.9178 106.307L63.9041 105.993L65.8883 105.685L63.9413 93.2761C63.9413 93.2761 63.702 90.1373 65.3097 88.2347L61.2183 88.876L57.1228 89.5173C59.2345 90.8388 59.9709 93.9011 59.9709 93.9011Z" fill="#E64141"/>
<path d="M58.2285 106.885C58.0356 105.654 60.4193 104.255 63.553 103.763C66.6873 103.27 69.3868 103.87 69.5797 105.106C69.7746 106.337 67.3889 107.736 64.2551 108.228C61.1209 108.72 58.4239 108.119 58.2285 106.885Z" fill="#E64141"/>
<path d="M47.1492 89.7174L44.3594 101.96L46.3176 102.406L48.2784 102.852L51.0662 90.6092C51.0662 90.6092 52.0096 87.6031 54.2096 86.4322L50.1697 85.5122L46.1273 84.5897C47.6004 86.5995 47.1492 89.7174 47.1492 89.7174Z" fill="#E64141"/>
<path d="M40.719 101.131C40.9955 99.9161 43.7277 99.4977 46.8216 100.204C49.9141 100.908 52.1998 102.467 51.9212 103.684C51.6422 104.901 48.9105 105.315 45.816 104.611C42.7237 103.907 40.4399 102.348 40.719 101.131Z" fill="#E64141"/>
<path d="M33.9979 87.877L27.2422 98.464L28.9355 99.5442L30.6316 100.627L37.3852 90.0378C37.3852 90.0378 39.2853 87.5286 41.7527 87.1664L38.2608 84.9383L34.7668 82.7081C35.4729 85.0963 33.9979 87.877 33.9979 87.877Z" fill="#E64141"/>
<path d="M24.0942 96.4542C24.7635 95.4042 27.4769 95.9339 30.153 97.639C32.827 99.3467 34.451 101.584 33.777 102.634C33.1081 103.689 30.3948 103.159 27.7182 101.449C25.0442 99.7441 23.4207 97.5069 24.0942 96.4542Z" fill="#E64141"/>
<path d="M27.4626 76.0242L17.4221 83.5652L18.6303 85.1729L19.8384 86.778L29.879 79.235C29.879 79.235 32.5387 77.5482 34.976 78.0758L32.4857 74.7625L29.9952 71.4476C29.8228 73.9334 27.4626 76.0242 27.4626 76.0242Z" fill="#E64141"/>
<path d="M15.1801 80.5779C16.1765 79.8294 18.5323 81.2769 20.4399 83.8162C22.345 86.3509 23.0814 89.0154 22.0823 89.7638C21.0833 90.5163 18.7296 89.0664 16.8225 86.5295C14.9174 83.9928 14.1812 81.3305 15.1801 80.5779Z" fill="#E64141"/>
<path d="M17.1689 66.7736L5.22534 70.6532L5.8457 72.563L6.47025 74.4722L18.4118 70.5925C18.4118 70.5925 21.4736 69.8609 23.6083 71.1502L22.3283 67.2103L21.046 63.2653C20.0776 65.5608 17.1689 66.7736 17.1689 66.7736Z" fill="#E64141"/>
<path d="M4.07073 67.0986C5.25796 66.7129 7.01667 68.8455 7.99936 71.8655C8.97695 74.8814 8.81003 77.6411 7.62281 78.0269C6.43354 78.4126 4.67687 76.2799 3.69673 73.26C2.7161 70.2441 2.8834 67.4842 4.07073 67.0986Z" fill="#E64141"/>
<path d="M15.6188 53.0829L3.06234 53.0621L3.05979 55.0692L3.0553 57.081L15.6147 57.0998C15.6147 57.0998 18.7531 57.355 20.3817 59.2418L20.3888 55.0973L20.3954 50.9549C18.7597 52.8339 15.6188 53.0829 15.6188 53.0829Z" fill="#E64141"/>
<path d="M3.06704 49.3288C4.31451 49.3288 5.32277 51.9029 5.32073 55.0764C5.31358 58.2474 4.29825 60.8193 3.0508 60.8168C1.80078 60.8168 0.792514 58.2428 0.797627 55.0692C0.801709 51.8957 1.8196 49.3242 3.06704 49.3288Z" fill="#E64141"/>
<path d="M22.3517 40.4888L10.1898 37.355L9.69025 39.302L9.18872 41.2464L21.3507 44.3782C21.3507 44.3782 24.3268 45.4048 25.4371 47.6349L26.4707 43.6256L27.5044 39.6108C25.4554 41.0281 22.3517 40.4888 22.3517 40.4888Z" fill="#E64141"/>
<path d="M11.1215 33.7376C12.3296 34.0494 12.6689 36.7953 11.8791 39.8663C11.0846 42.9379 9.46524 45.1772 8.25704 44.8659C7.04681 44.5547 6.70759 41.8108 7.49944 38.7373C8.29232 35.6658 9.91123 33.4264 11.1215 33.7376Z" fill="#E64141"/>
<path d="M26.8909 28.6825L17.0224 20.9165L15.7816 22.4961L14.5387 24.0758L24.4078 31.8422C24.4078 31.8422 26.719 33.9795 26.8379 36.4698L29.4002 33.2127L31.9625 29.956C29.5161 30.4249 26.8909 28.6825 26.8909 28.6825Z" fill="#E64141"/>
<path d="M19.3342 17.9822C20.3143 18.7532 19.5199 21.4018 17.5567 23.8946C15.5959 26.3875 13.2101 27.7835 12.2295 27.01C11.2468 26.2385 12.0413 23.59 14.0045 21.0976C15.9653 18.6047 18.3536 17.2088 19.3342 17.9822Z" fill="#E64141"/>
<path d="M38.8303 22.8099L32.8342 11.777L31.0683 12.7363L29.303 13.698L35.2991 24.7309C35.2991 24.7309 36.5791 27.6069 35.7006 29.9416L39.3415 27.9625L42.9864 25.9829C40.5492 25.4487 38.8303 22.8099 38.8303 22.8099Z" fill="#E64141"/>
<path d="M36.1163 9.99284C36.7112 11.0867 34.9342 13.2056 32.1464 14.7225C29.3611 16.2373 26.6146 16.5767 26.0202 15.4801C25.4233 14.3812 27.203 12.2648 29.9902 10.7499C32.776 9.23513 35.5199 8.89376 36.1163 9.99284Z" fill="#E64141"/>
<path d="M89.443 49.2615C88.971 46.5292 90.8016 43.9272 93.5364 43.4532L93.6038 43.444C93.2088 42.1522 92.7532 40.8837 92.2379 39.6526L92.1772 39.6852C89.7705 41.0674 86.699 40.2378 85.3194 37.8311C83.9368 35.4244 84.7684 32.3534 87.173 30.9733L87.2266 30.9433C86.4179 29.8723 85.5516 28.8406 84.6408 27.8554L84.6036 27.8998C82.8174 30.0208 79.6484 30.2948 77.5249 28.5059C75.4039 26.7217 75.132 23.5533 76.9187 21.4298L76.9555 21.3854C75.8314 20.6563 74.6697 19.9848 73.4712 19.3665L73.4524 19.4226C72.4998 22.0288 69.617 23.3696 67.0079 22.4197C64.4058 21.4671 63.0634 18.5838 64.0133 15.9797L64.0343 15.9236C62.7333 15.6261 61.4093 15.394 60.0664 15.2272V15.2802C60.0664 18.0543 57.8173 20.3053 55.0459 20.3053C52.2698 20.3053 50.0207 18.0543 50.0207 15.2802V15.2272C48.7733 15.3803 47.5447 15.5914 46.334 15.8588L46.3548 15.9144C47.2885 18.5257 45.9253 21.4018 43.314 22.3354C40.7001 23.265 37.8266 21.9038 36.8925 19.2925L36.8741 19.2363C35.6705 19.843 34.5067 20.5099 33.3775 21.2298L33.4123 21.2736C35.1826 23.4089 34.8878 26.5758 32.7551 28.3483C30.6199 30.1183 27.4534 29.8234 25.6784 27.6881L25.6463 27.6488C24.7284 28.6269 23.8595 29.6494 23.0396 30.7178L23.0906 30.7458C25.4836 32.1443 26.2922 35.2198 24.8937 37.6154C23.4973 40.0103 20.4192 40.819 18.0237 39.4205L17.9635 39.3879C17.4385 40.6169 16.9716 41.8782 16.567 43.1675L16.639 43.1792C19.3666 43.6716 21.181 46.2875 20.6885 49.0151C20.1962 51.7473 17.5849 53.559 14.8527 53.0666L14.7925 53.0575C14.7552 53.7707 14.7344 54.4907 14.7344 55.2131C14.7344 55.8408 14.7527 56.4632 14.7808 57.0836L14.8409 57.0744C17.5731 56.6004 20.1727 58.4332 20.6467 61.1654C21.1187 63.9021 19.2854 66.4992 16.5507 66.9731L16.4859 66.9848C16.8782 68.2787 17.3339 69.5425 17.8497 70.7788L17.9125 70.7416C20.3192 69.3614 23.3881 70.1905 24.7703 72.5952C26.1529 75.0023 25.3208 78.0734 22.9141 79.4535L22.8631 79.4861C23.6739 80.5591 24.5381 81.5861 25.4509 82.5709L25.4836 82.5296C27.2703 80.4061 30.4413 80.1341 32.5623 81.9204C34.6858 83.7071 34.9572 86.8781 33.1689 88.9991L33.1363 89.0435C34.2582 89.773 35.42 90.4466 36.6164 91.0624L36.6394 91.0063C37.5874 88.4021 40.4726 87.0598 43.0793 88.0099C45.6861 88.9598 47.0264 91.8451 46.0763 94.4518L46.0529 94.5053C47.3539 94.8002 48.6779 95.0324 50.0208 95.1997V95.1487C50.0208 92.3726 52.2699 90.1262 55.0459 90.1262C57.8174 90.1262 60.0665 92.3726 60.0665 95.1487V95.1997C61.3165 95.0467 62.543 94.8375 63.7532 94.5701L63.7323 94.5124C62.8007 91.9007 64.1644 89.0247 66.7758 88.093C69.387 87.1618 72.2631 88.523 73.1947 91.1389L73.2157 91.1946C74.4167 90.5859 75.5831 89.919 76.7142 89.1966L76.677 89.1547C74.907 87.02 75.1999 83.8536 77.3346 82.0831C79.4694 80.3087 82.6384 80.6055 84.4087 82.7382L84.4409 82.7801C85.3608 81.7995 86.2302 80.7775 87.0476 79.7112L87.0011 79.6836C84.6037 78.2846 83.795 75.2065 85.1939 72.8135C86.5925 70.4161 89.6686 69.6079 92.066 71.0064L92.1263 71.0432C92.6513 69.8125 93.1181 68.5507 93.5223 67.2614L93.4528 67.2471C90.7227 66.7548 88.9063 64.144 89.3987 61.4118C89.8936 58.6842 92.507 56.8673 95.2345 57.3602L95.2952 57.3715C95.3346 56.6587 95.3554 55.9382 95.3554 55.2132C95.3554 54.5862 95.3346 53.9637 95.3064 53.3453L95.2508 53.355C92.5164 53.8284 89.917 51.9932 89.443 49.2615Z" fill="#E64141"/>
<path d="M46.8751 42.1756C46.8751 46.0089 43.7689 49.1171 39.9357 49.1171C36.1025 49.1171 32.9943 46.0089 32.9943 42.1756C32.9943 38.3424 36.1025 35.2341 39.9357 35.2341C43.7689 35.2341 46.8751 38.3424 46.8751 42.1756Z" fill="#EFAEA9"/>
<path d="M61.9852 56.7371C61.9852 60.5729 58.8765 63.6786 55.0458 63.6786C51.2106 63.6786 48.1044 60.5729 48.1044 56.7371C48.1044 52.9039 51.2106 49.7957 55.0458 49.7957C58.8765 49.7957 61.9852 52.9039 61.9852 56.7371Z" fill="#EFAEA9"/>
<path d="M41.6874 66.1832C41.6874 70.0165 38.5791 73.1248 34.748 73.1248C30.9127 73.1248 27.8065 70.0165 27.8065 66.1832C27.8065 62.35 30.9127 59.2418 34.748 59.2418C38.5791 59.2418 41.6874 62.35 41.6874 66.1832Z" fill="#EFAEA9"/>
<path d="M68.9266 31.5076C68.9266 35.3408 65.8184 38.4496 61.9852 38.4496C58.1519 38.4496 55.0458 35.3408 55.0458 31.5076C55.0458 27.6743 58.152 24.566 61.9852 24.566C65.8184 24.566 68.9266 27.6743 68.9266 31.5076Z" fill="#EFAEA9"/>
<path d="M54.9066 18.7512C55.2877 20.6282 52.553 22.7721 48.7942 23.5344C45.0401 24.2987 41.6828 23.3952 41.3022 21.518C40.9211 19.6384 43.6554 17.4986 47.4095 16.7322C51.1688 15.9705 54.5229 16.8715 54.9066 18.7512Z" fill="#EFAEA9"/>
<path d="M87.1917 72.1308C88.4576 73.5712 87.1499 76.7911 84.2692 79.3187C81.3881 81.8509 78.0288 82.7336 76.7629 81.2932C75.4966 79.8529 76.8068 76.633 79.6875 74.1054C82.5661 71.5731 85.928 70.6905 87.1917 72.1308Z" fill="#EFAEA9"/>
<path d="M20.8048 48.1324C22.719 48.0926 24.3379 51.1666 24.4196 54.9994C24.4987 58.8326 23.0094 61.9734 21.0925 62.0106C19.1782 62.0526 17.5593 58.977 17.4776 55.1433C17.399 51.3125 18.8858 48.1742 20.8048 48.1324Z" fill="#EFAEA9"/>
<path d="M32.5019 79.2024C33.654 77.6713 37.0715 78.3008 40.1333 80.608C43.1951 82.9147 44.7425 86.028 43.5858 87.5566C42.4333 89.0898 39.0159 88.4582 35.9567 86.1536C32.8944 83.8443 31.3474 80.7311 32.5019 79.2024Z" fill="#EFAEA9"/>
<path d="M76.9461 29.2519C78.3171 27.9156 81.5998 29.0564 84.2738 31.8024C86.95 34.5464 88.0046 37.8593 86.6341 39.1975C85.2586 40.5353 81.9784 39.3924 79.3024 36.6465C76.6257 33.9005 75.5711 30.5876 76.9461 29.2519Z" fill="#EFAEA9"/>
<path d="M87.271 55.0974C87.271 58.9301 84.1622 62.0388 80.3289 62.0388C76.4957 62.0388 73.3875 58.9301 73.3875 55.0974C73.3875 51.264 76.4957 48.1553 80.3289 48.1553C84.1622 48.1553 87.271 51.264 87.271 55.0974Z" fill="#EFAEA9"/>
<path d="M87.271 55.0974C87.271 58.9301 84.1622 62.0388 80.3289 62.0388C76.4957 62.0388 73.3875 58.9301 73.3875 55.0974C73.3875 51.264 76.4957 48.1553 80.3289 48.1553C84.1622 48.1553 87.271 51.264 87.271 55.0974Z" fill="#EFAEA9"/>
<path d="M68.5088 78.5473C68.5088 82.3805 65.4 85.4888 61.5668 85.4888C57.7341 85.4888 54.6254 82.3805 54.6254 78.5473C54.6254 74.714 57.7341 71.6057 61.5668 71.6057C65.4 71.6057 68.5088 74.714 68.5088 78.5473Z" fill="#EFAEA9"/>
</svg>
